inDegrees=no
num_controls=7
num_derivatives=13
num_iterations=175
num_multipliers=7
num_parameters=0
num_slacks=7
num_states=26
objective=5.713635
objective_accelerations=0.648011
objective_balance=0.088926
objective_effort=0.504888
objective_height=4.389636
objective_ligament=0.082173
solver_duration=1967.251065
status=Solve_Succeeded
success=true
DataType=double
version=3
OpenSimVersion=4.4-2022-07-23-0e9fedc
endheader
time	/jointset/ground_pelvis/pelvis_tilt/value	/jointset/ground_pelvis/pelvis_tx/value	/jointset/ground_pelvis/pelvis_ty/value	/jointset/hip_l/hip_flexion_l/value	/jointset/hip_l/hip_adduction_l/value	/jointset/hip_l/hip_rotation_l/value	/jointset/back/lumbar_extension/value	/jointset/patellofemoral_l/patellar_flexion_l/value	/jointset/knee_l/knee_flexion_l/value	/jointset/knee_l/knee_adduction_l/value	/jointset/knee_l/knee_rotation_l/value	/jointset/ankle_l/ankle_angle_l/value	/jointset/subtalar_l/subtalar_angle_l/value	/jointset/ground_pelvis/pelvis_tilt/speed	/jointset/ground_pelvis/pelvis_tx/speed	/jointset/ground_pelvis/pelvis_ty/speed	/jointset/hip_l/hip_flexion_l/speed	/jointset/hip_l/hip_adduction_l/speed	/jointset/hip_l/hip_rotation_l/speed	/jointset/back/lumbar_extension/speed	/jointset/patellofemoral_l/patellar_flexion_l/speed	/jointset/knee_l/knee_flexion_l/speed	/jointset/knee_l/knee_adduction_l/speed	/jointset/knee_l/knee_rotation_l/speed	/jointset/ankle_l/ankle_angle_l/speed	/jointset/subtalar_l/subtalar_angle_l/speed	/forceset/tau_hip_flexion_l	/forceset/tau_hip_adduction_l	/forceset/tau_hip_rotation_l	/forceset/tau_knee_flexion_l	/forceset/tau_ankle_angle_l	/forceset/tau_subtalar_angle_l	/forceset/tau_lumbar_extension	lambda_cid13_p0	lambda_cid13_p1	lambda_cid13_p2	lambda_cid13_p3	lambda_cid13_p4	lambda_cid13_p5	lambda_cid14_p0	/jointset/ground_pelvis/pelvis_tilt/accel	/jointset/ground_pelvis/pelvis_tx/accel	/jointset/ground_pelvis/pelvis_ty/accel	/jointset/hip_l/hip_flexion_l/accel	/jointset/hip_l/hip_adduction_l/accel	/jointset/hip_l/hip_rotation_l/accel	/jointset/back/lumbar_extension/accel	/jointset/patellofemoral_l/patellar_flexion_l/accel	/jointset/knee_l/knee_flexion_l/accel	/jointset/knee_l/knee_adduction_l/accel	/jointset/knee_l/knee_rotation_l/accel	/jointset/ankle_l/ankle_angle_l/accel	/jointset/subtalar_l/subtalar_angle_l/accel	gamma_cid13_p0	gamma_cid13_p1	gamma_cid13_p2	gamma_cid13_p3	gamma_cid13_p4	gamma_cid13_p5	gamma_cid14_p0
1	-0.7790847398270818	-0.1752054507966193	0.5780121340248487	2.094394861219073	-0.3061014835017812	0.1007032684768774	-0.4363309319892256	1.117043351798288	1.117043351798857	-0.1745285362247866	0.1745316274950286	-0.01436688128410637	-0.06054090592173227	-0.01105510871710605	0.001063889635657637	-0.003065574542586978	0.01674286147333784	0.0007220853870366954	0.003549950061026034	-4.609245628440045e-05	0.008958602388442677	0.008958602388442009	-2.378422484291635e-06	8.269075235561301e-06	0.004040955676997469	0.001412329235521707	-0.5064845359581923	-0.000649433726272346	-0.01681867263207693	-0.2000584316154476	0.1906160748800866	0.03656290390670846	0.3887025613651483	13.93844017628317	-18.01772112217838	2.125064349469487	4.391689994316557	-736.9913481678641	-41.55725740435818	-3.155641586303415	2.361420449353591	0.3883932706701548	1.749566691711591	-6.817979224658168	-0.2726099686151744	-1.607595580391985	-0.0206745829404326	-4.364481485772063	-4.364481485772293	-0.03417310082730182	0.01340567218422252	-0.1636563898243537	-0.2531124049753758	4.434749116641601e-10	3.413081859401115e-09	-5.196623706946316e-09	1.215797849721734e-09	2.349446983568899e-10	-2.442137367405527e-09	1.470690874651845e-09
1.01	-0.7790780466726189	-0.1751754621644198	0.5780688738442515	2.094222313855041	-0.3061070493164604	0.1006578821337214	-0.4363313985491469	1.116914731224714	1.116914731225129	-0.1745285607846122	0.174531705028574	-0.01433450904657815	-0.06053856816676082	0.01240164656751131	0.004936954337219039	0.01441444886914774	-0.05126274903794456	-0.001833494534464058	-0.01262679746355527	-4.335259451435344e-05	-0.03468439521456546	-0.03468439521456579	-2.450367111372742e-06	7.060950343764649e-06	0.00243443119984218	-0.0009428328687055825	-0.5065561525818771	-0.000593278127642881	-0.01682169579388418	-0.2000068639779984	0.1905730000995163	0.03659793056392471	0.388790602487056	13.92481049420633	-18.03112200560483	2.127857790731441	4.35719442877766	-737.0308291517424	-41.58032655684026	-3.160670310213334	2.338988758446993	0.387230935153498	1.747355826161063	-6.793414631085998	-0.2467696201852198	-1.622654219059771	0.01132830976421736	-4.364459920297751	-4.364459920297513	0.01708671147715191	-0.006913955278145362	-0.159009399576826	-0.2264270419497453	-2.046970419306402e-09	-4.642863151596648e-09	1.245920802358131e-08	1.176929999445869e-09	-4.485528506452328e-09	1.725625921919445e-08	-3.420283863221723e-09
1.02	-0.7788365488272272	-0.1751066493121537	0.5783004410298227	2.09336939785255	-0.3061381184536079	0.1004507403392067	-0.4363317217025391	1.116349630470563	1.116349630470826	-0.1745285838733271	0.1745317645007631	-0.01431817383840473	-0.06055972381859241	0.03590582946937278	0.008828733648983123	0.03189989869114446	-0.1193308662181304	-0.004378579106674376	-0.02880114021088119	-1.741117160198293e-05	-0.07833743372687937	-0.07833743372687822	-2.084201434956177e-06	4.656807361060736e-06	0.0008335498060574846	-0.003286352125067179	-0.5066277692055599	-0.0005371225290084476	-0.01682471895567292	-0.1999552963405531	0.1905299253189457	0.03663295722114601	0.3888786436089654	13.90711909912262	-18.04461152247149	2.131579171735339	4.32157138950234	-737.1312520334413	-41.57914008399894	-3.182751764677735	2.370905972802416	0.3921361927106915	1.750651973763988	-6.830480558438856	-0.2705108987571108	-1.607114624940937	-0.01603427071175643	-4.366489667633207	-4.366489667633212	-0.0340854787666116	0.01316646856608466	-0.1625277731502407	-0.2507838354022616	-3.974537010502225e-09	-1.26041702691636e-08	3.031415285918163e-08	-2.479490327574173e-10	-8.64156505569824e-09	3.680440377207947e-08	-8.331484371488991e-09
1.03	-0.7783597761274664	-0.1749988021050013	0.5787068129705699	2.091835661249795	-0.3061945450195793	0.1000819383064675	-0.4363317467069271	1.115348075217361	1.115348075217591	-0.1745286166680477	0.1745317977939589	-0.01431785747897367	-0.0606042241079236	0.05945629091941115	0.01274612888306083	0.04936775242682041	-0.1874096564237382	-0.00690020037712022	-0.04495244017098787	8.49373517398741e-06	-0.1219625564495465	-0.1219625564495464	-4.268189527733482e-06	1.859504388143598e-06	-0.0007728331554153036	-0.005607783888004827	-0.5061525376981548	-0.0004478010885370484	-0.01684698534612394	-0.1999659956452105	0.1906124700201111	0.03671740705350471	0.3886209614401349	13.95545265577494	-18.09333363106856	2.143438987878982	4.217983473700868	-736.8474913516792	-41.65801919726115	-3.222127732868328	2.348251820509905	0.3923540078704236	1.743838935226717	-6.795560323538083	-0.2420111894803691	-1.618125013825102	0.01131538977653851	-4.358861826626036	-4.358861826626138	0.01674072216988243	-0.007036972165219237	-0.1600759438799045	-0.2219370408458417	-5.896359941088097e-09	-2.056451169394044e-08	4.817112946116025e-08	-1.68697103620487e-09	-1.279184204723432e-08	5.635101514094698e-08	-1.324289126516844e-08
1.04	-0.7776472716953277	-0.1748516183816852	0.5792876608210252	2.0896213403306	-0.3062759924879135	0.09955182580766885	-0.4363316301587071	1.113910601086523	1.11391060108672	-0.1745286661864459	0.1745317962856205	-0.01433368142640432	-0.06067176155370552	0.08305217594566047	0.01669603688173002	0.06679508063278855	-0.2554477295059941	-0.009382759579248171	-0.06106323342227873	1.089937811906591e-05	-0.1655212092539197	-0.1655212092539202	-5.428937599843958e-06	-2.303496034850396e-06	-0.002394511566253533	-0.007893783415196122	-0.5056773061907408	-0.000358479648065505	-0.01686925173658129	-0.1999766949498718	0.1906950147212732	0.03680185688586303	0.3883632792713152	13.99971285538157	-18.14217918108468	2.156274377636446	4.112962869509031	-736.6249721506574	-41.71308092223612	-3.279086835586732	2.379990688044598	0.3986387456289859	1.742546867822427	-6.822337133768497	-0.2626984850935226	-1.599013283177774	-0.02073412347789277	-4.353195683974439	-4.353195683974336	-0.03388083076246492	0.01289332907605751	-0.1655868630233294	-0.243697388252982	-8.001493221953024e-09	-2.761768268517149e-08	6.600977093698922e-08	-2.214725043971552e-09	-1.6788117588237e-08	7.45054650797612e-08	-1.784437028429348e-08
